<svg id="Capa_1" data-name="Capa 1" xmlns="http://www.w3.org/2000/svg" viewBox="0 0 911 1064"><defs><style>.cls-1{fill:#0065bb;}</style></defs><path class="cls-1" d="M563,532H348.84c-4.43,0-6.82,2.42-6.82,7.23v32.08c0,4.81,2.39,7.26,6.82,7.26h81.39V753.1c0,4.8,2,7.19,6.82,7.19h33.29c4.4,0,6.79-2.39,6.79-7.19V578.57H563c4.43,0,6.82-2.45,6.82-7.26V539.23c0-4.81-2.39-7.23-6.82-7.23"/><path class="cls-1" d="M297.12,532H162q-23.44,0-39.71,4.81c-10.8,3.24-19.61,8.05-26.43,14.88s-11.66,16-14.84,26.88-4.84,24.06-4.84,39.7v55.78c0,15.61,1.63,28.87,4.84,40.11,3.18,10.83,8,19.68,14.84,26.48a57.29,57.29,0,0,0,26.43,14.85q16.29,4.82,39.71,4.8H297.12c4.81,0,6.82-2.39,6.82-7.19V721c0-4.8-2-7.22-6.82-7.22H164c-8,0-14.84-.4-20-2a22.68,22.68,0,0,1-12.42-7.2,31.46,31.46,0,0,1-6.43-13.65c-1.59-5.6-2-12.83-2-21.68v-46.1c0-8.85.39-16.07,2-21.68a29.32,29.32,0,0,1,6.43-13.25A23,23,0,0,1,143.93,581c5.2-1.59,12.06-2.38,20-2.38H297.12c4.81,0,6.82-2.45,6.82-7.26V539.23c0-4.81-2-7.23-6.82-7.23"/><path class="cls-1" d="M828.8,532H662c-18.45,0-32.1,4.81-40.91,14.85q-13.22,14.46-13.25,38.51v23.7c0,18,4.44,31.68,13.65,41.3,8.84,10,22.06,14.87,40.08,14.87H772.66c10.83,0,16,6,16,18v13.22c0,5.63-1.19,10-3.61,13.66-2.42,3.21-6.79,4.83-12.42,4.83H615.09c-4.83,0-7.25,2.39-7.25,7.2V753.1q0,7.2,7.25,7.19H781.47c18.48,0,32.09-5.2,40.91-14.82s13.24-22.5,13.24-38.54V680.85c0-18.06-4.43-31.69-13.24-41.3-9.24-9.64-22.43-14.45-40.51-14.45H670.81c-10.83,0-16-6-16-18.46V595.8c0-5.63,1.22-10.44,3.61-13.62s6.79-4.84,12.82-4.84H828.8c4.8,0,6.82-2.42,6.82-7.22V539.23c0-4.81-2-7.23-6.82-7.23"/><path class="cls-1" d="M837.6,0H73A73.26,73.26,0,0,0,0,73V991a73,73,0,0,0,73,73H837.6A73.09,73.09,0,0,0,911,991V73c0-40.14-32.89-73-73.4-73m40.11,836.14H32.89V73A40.22,40.22,0,0,1,73,32.88H837.6A40.24,40.24,0,0,1,877.71,73Z"/></svg>